<?xml version="1.0" encoding="utf-8"?>
<!-- Generator: Adobe Illustrator 21.0.2, SVG Export Plug-In . SVG Version: 6.00 Build 0)  -->
<svg version="1.1" id="Camada_1" xmlns="http://www.w3.org/2000/svg" xmlns:xlink="http://www.w3.org/1999/xlink" x="0px" y="0px"
	 viewBox="0 0 240 94.7" style="enable-background:new 0 0 240 94.7;" xml:space="preserve">
<style type="text/css">
	.st0{fill:#231F20;}
</style>
<g>
	<g>
		<g>
			<path d="M71.8,49.1h-5v-1.1c0-1.1-0.3-2.1-0.8-3c-0.5-0.8-1.5-1.3-2.7-1.3c-0.7,0-1.3,0.1-1.7,0.4c-0.4,0.3-0.8,0.6-1,1
				c-0.2,0.4-0.4,0.9-0.5,1.4c-0.1,0.5-0.1,1.1-0.1,1.7c0,0.7,0,1.3,0.1,1.7c0,0.5,0.2,0.9,0.4,1.2c0.2,0.3,0.5,0.6,0.9,0.9
				c0.4,0.3,0.9,0.5,1.5,0.8l3.8,1.5c1.1,0.4,2,0.9,2.7,1.5c0.7,0.6,1.2,1.2,1.6,2c0.4,0.8,0.6,1.7,0.8,2.7c0.1,1,0.2,2.1,0.2,3.4
				c0,1.5-0.1,2.8-0.4,4.1c-0.3,1.3-0.8,2.3-1.5,3.2c-0.7,0.9-1.6,1.6-2.7,2.1c-1.1,0.5-2.5,0.8-4.1,0.8c-1.2,0-2.3-0.2-3.4-0.6
				c-1-0.4-2-1-2.7-1.7c-0.8-0.7-1.4-1.6-1.8-2.6c-0.4-1-0.7-2.1-0.7-3.3v-1.9h5v1.6c0,0.9,0.3,1.7,0.8,2.5c0.5,0.7,1.5,1.1,2.7,1.1
				c0.9,0,1.5-0.1,2-0.4c0.5-0.2,0.8-0.6,1.1-1c0.2-0.4,0.4-1,0.5-1.6c0.1-0.7,0.1-1.4,0.1-2.2c0-0.9,0-1.7-0.1-2.3
				c-0.1-0.6-0.2-1.1-0.4-1.4c-0.2-0.4-0.5-0.7-0.9-0.9c-0.4-0.2-0.9-0.5-1.5-0.7l-3.6-1.5c-2.2-0.9-3.6-2.1-4.4-3.5
				c-0.7-1.5-1.1-3.3-1.1-5.5c0-1.3,0.2-2.6,0.5-3.7c0.4-1.2,0.9-2.2,1.6-3c0.7-0.9,1.6-1.5,2.7-2c1.1-0.5,2.3-0.8,3.8-0.8
				c1.2,0,2.4,0.2,3.4,0.7c1,0.5,1.9,1.1,2.7,1.8c0.7,0.8,1.3,1.6,1.7,2.5c0.4,0.9,0.6,1.9,0.6,2.9V49.1z"/>
			<path d="M78.9,43.7h-5.8V39h16.6v4.7h-5.8V74h-5V43.7z"/>
			<path d="M97.6,59.2L90.7,39H96l4,13.9h0.1l4-13.9h5.3l-6.9,20.2V74h-5V59.2z"/>
			<path d="M111,39h5v30h9.9v5h-15V39z"/>
			<path d="M128.2,39h15v4.7h-9.9V54h8.7v4.7h-8.7V69h9.9v5h-15V39z"/>
			<path d="M156.2,47.2c0-1.4,0.2-2.7,0.7-3.7c0.5-1.1,1.1-2,1.9-2.7c0.8-0.7,1.7-1.2,2.7-1.6c1-0.4,2-0.5,3-0.5c1,0,2,0.2,3,0.5
				c1,0.4,1.9,0.9,2.7,1.6c0.8,0.7,1.5,1.6,1.9,2.7c0.5,1.1,0.7,2.3,0.7,3.7V49h-5v-1.8c0-1.2-0.3-2.1-1-2.7
				c-0.7-0.6-1.5-0.9-2.4-0.9c-0.9,0-1.7,0.3-2.4,0.9c-0.7,0.6-1,1.5-1,2.7v18.5c0,1.2,0.3,2.1,1,2.7c0.7,0.6,1.5,0.9,2.4,0.9
				c0.9,0,1.7-0.3,2.4-0.9c0.7-0.6,1-1.5,1-2.7v-6.6h-4v-4.4h9v11c0,1.4-0.2,2.7-0.7,3.8c-0.5,1.1-1.1,2-1.9,2.7
				c-0.8,0.7-1.7,1.2-2.7,1.6c-1,0.4-2,0.5-3,0.5c-1,0-2-0.2-3-0.5c-1-0.4-1.9-0.9-2.7-1.6c-0.8-0.7-1.5-1.6-1.9-2.7
				c-0.5-1.1-0.7-2.3-0.7-3.8V47.2z"/>
			<path d="M191.7,66.1c0,1.1-0.2,2.2-0.6,3.2c-0.4,1-1,1.8-1.7,2.6c-0.7,0.7-1.6,1.3-2.6,1.7c-1,0.4-2,0.6-3.1,0.6
				c-1.1,0-2.2-0.2-3.1-0.6c-1-0.4-1.8-1-2.6-1.7c-0.7-0.7-1.3-1.6-1.7-2.6c-0.4-1-0.6-2-0.6-3.2V39h5v26.7c0,1.2,0.3,2.2,0.9,2.8
				c0.6,0.6,1.3,0.9,2.2,0.9s1.6-0.3,2.2-0.9c0.6-0.6,0.9-1.5,0.9-2.8V39h5V66.1z"/>
			<path d="M194.6,39h5v35h-5V39z"/>
			<path d="M202.5,39h7.4c2.9,0,5,0.8,6.5,2.4c1.5,1.6,2.3,3.8,2.3,6.7v16.4c0,3.3-0.8,5.7-2.4,7.3c-1.6,1.6-3.9,2.3-6.9,2.3h-7V39z
				 M207.5,69.3h2.3c1.4,0,2.4-0.4,3-1.1c0.6-0.7,0.9-1.8,0.9-3.3V48c0-1.4-0.3-2.4-0.8-3.2c-0.6-0.8-1.6-1.1-3-1.1h-2.3V69.3z"/>
			<path d="M221.4,39h15v4.7h-9.9V54h8.7v4.7h-8.7V69h9.9v5h-15V39z"/>
		</g>
		<g>
			<path d="M64.1,32.8h-5.8l-1.2,3.5h-2.5l5.6-15.8h1.9l5.6,15.8h-2.4L64.1,32.8z M63.4,30.6l-2.2-6.9h0l-2.2,6.9H63.4z"/>
			<path d="M70.7,22.6h-4.2v-2.1h10.7v2.1H73v13.7h-2.3V22.6z"/>
			<path d="M78.3,28.4c0-1.8,0.1-3.1,0.2-3.7c0.1-0.6,0.3-1.1,0.5-1.5c0.4-0.7,1-1.4,1.8-1.9c0.8-0.6,1.8-0.9,3-0.9
				c1.2,0,2.2,0.3,3,0.9c0.8,0.6,1.4,1.2,1.7,1.9c0.3,0.4,0.4,0.9,0.5,1.5c0.1,0.6,0.1,1.8,0.1,3.7c0,1.8,0,3-0.1,3.7
				c-0.1,0.6-0.3,1.1-0.5,1.5c-0.4,0.7-0.9,1.4-1.7,1.9c-0.8,0.6-1.8,0.9-3,0.9c-1.2,0-2.2-0.3-3-0.9c-0.8-0.6-1.4-1.2-1.8-1.9
				c-0.1-0.2-0.2-0.5-0.3-0.7c-0.1-0.2-0.2-0.5-0.2-0.8C78.3,31.4,78.3,30.2,78.3,28.4z M80.6,28.4c0,1.6,0.1,2.6,0.2,3.2
				c0.1,0.5,0.3,1,0.6,1.3c0.2,0.3,0.6,0.6,1,0.8c0.4,0.2,0.9,0.4,1.4,0.4c0.6,0,1-0.1,1.4-0.4c0.4-0.2,0.7-0.5,0.9-0.8
				c0.3-0.3,0.5-0.8,0.6-1.3c0.1-0.5,0.2-1.6,0.2-3.2c0-1.6-0.1-2.6-0.2-3.2c-0.1-0.5-0.3-1-0.6-1.3c-0.2-0.3-0.5-0.6-0.9-0.8
				c-0.4-0.2-0.9-0.3-1.4-0.3c-0.5,0-1,0.1-1.4,0.3c-0.4,0.2-0.7,0.5-1,0.8c-0.3,0.3-0.5,0.8-0.6,1.3C80.6,25.8,80.6,26.8,80.6,28.4
				z"/>
			<path d="M92.3,20.5h2.2l4.4,10.3l4.3-10.3h2.2v15.8H103v-9.8H103L99.8,34h-1.9l-3.2-7.6h0v9.8h-2.3V20.5z"/>
			<path d="M109.1,20.5h2.3v15.8h-2.3V20.5z"/>
			<path d="M125.1,31.9c-0.3,1.5-1,2.6-1.9,3.4c-1,0.8-2.1,1.2-3.5,1.2c-1.2,0-2.2-0.3-3-0.9c-0.8-0.6-1.4-1.2-1.8-1.9
				c-0.1-0.2-0.2-0.5-0.3-0.7c-0.1-0.2-0.2-0.5-0.2-0.8c-0.1-0.6-0.2-1.9-0.2-3.7c0-1.8,0.1-3.1,0.2-3.7c0.1-0.6,0.3-1.1,0.5-1.5
				c0.4-0.7,1-1.4,1.8-1.9c0.8-0.6,1.8-0.9,3-0.9c1.5,0,2.7,0.5,3.6,1.4c0.9,0.9,1.5,2,1.8,3.3h-2.5c-0.2-0.6-0.5-1.2-1-1.6
				c-0.5-0.4-1.1-0.6-1.9-0.7c-0.5,0-1,0.1-1.4,0.3c-0.4,0.2-0.7,0.5-1,0.8c-0.3,0.3-0.5,0.8-0.6,1.3c-0.1,0.6-0.2,1.6-0.2,3.2
				c0,1.6,0.1,2.6,0.2,3.2c0.1,0.5,0.3,1,0.6,1.3c0.2,0.3,0.6,0.6,1,0.8c0.4,0.2,0.9,0.4,1.4,0.4c1.3,0,2.3-0.7,2.9-2.2H125.1z"/>
		</g>
	</g>
	<g>
		<g>
			<circle class="st0" cx="27.8" cy="26.9" r="12.9"/>
			<circle class="st0" cx="44.5" cy="13.9" r="4.3"/>
		</g>
		<circle class="st0" cx="8" cy="79.6" r="4.3"/>
		<g>
			<circle class="st0" cx="27.8" cy="68.2" r="12.9"/>
		</g>
		<path class="st0" d="M51.2,65.1c-0.7-5.9-3.6-11.4-8.1-15.3c-2.6-2.2-5.8-3.7-9.4-4.4c-0.7-0.1-1.5-0.3-2.2-0.4
			c-1.8-0.3-3.7-0.7-5.5-1.1c-2.3-0.6-5-1.3-7.2-2.6c-2-1.2-3.9-3-5.3-5.3c-2.7-4.2-3.6-9.1-2.3-13.6c1.2-4.5,4.3-8.4,8.5-10.6
			c5.3-2.9,12-2.7,17.2,0.5l0,0c0.9,0.5,2,0.1,2.4-0.8l0,0c0.3-0.7,0.7-1.3,1.4-1.8v0C41.4,9,41.4,7.6,40.5,7l0,0
			c-9.8-6.3-22.9-4.3-30.5,4.4c-3.4,3.9-5.4,8.9-5.7,14c-0.3,5.9,1.7,12,5.7,16.8c3.2,3.8,7.7,6.3,14,7.6c0.9,0.2,1.8,0.4,2.8,0.5
			c3.7,0.7,7.1,1.4,10.2,3.2c4,2.4,6.7,6,7.6,10.3c0.9,4.1,0.3,8.3-1.6,11.9c-2.2,4.1-6,7.2-10.6,8.4c-4.6,1.3-9.3,0.7-13.3-1.7
			c-1.1-0.7-2.1-1.4-3.1-2.3h0c-0.9-0.9-2.4-0.4-2.7,0.8l0,0c-0.1,0.4-0.3,0.9-0.5,1.3c-0.1,0.2-0.3,0.5-0.5,0.7
			c-1,1.3-0.4,2.3,0.3,2.9l0.1,0.1c1,0.9,2.1,1.6,3.3,2.3c2.4,1.4,5,2.3,7.7,2.8c1.3,0.2,2.7,0.3,4,0.3c3.7,0,7.4-0.9,10.7-2.5
			C47.2,84.4,52.3,74.8,51.2,65.1z"/>
	</g>
</g>
</svg>
