<?xml version="1.0" encoding="utf-8"?>
<!-- Generator: Adobe Illustrator 21.0.2, SVG Export Plug-In . SVG Version: 6.00 Build 0)  -->
<svg version="1.1" id="Camada_1" xmlns="http://www.w3.org/2000/svg" xmlns:xlink="http://www.w3.org/1999/xlink" x="0px" y="0px"
	 viewBox="0 0 186 178.7" style="enable-background:new 0 0 186 178.7;" xml:space="preserve">
<style type="text/css">
	.st0{fill:#231F20;}
</style>
<g>
	<g>
		<path d="M19.3,150.9h-5v-1.1c0-1.1-0.3-2.1-0.8-3c-0.5-0.8-1.5-1.3-2.7-1.3c-0.7,0-1.3,0.1-1.7,0.4c-0.4,0.3-0.8,0.6-1,1
			c-0.2,0.4-0.4,0.9-0.5,1.4c-0.1,0.5-0.1,1.1-0.1,1.7c0,0.7,0,1.3,0.1,1.7c0,0.5,0.2,0.9,0.4,1.2c0.2,0.3,0.5,0.6,0.9,0.9
			c0.4,0.3,0.9,0.5,1.5,0.8l3.8,1.5c1.1,0.4,2,0.9,2.7,1.5c0.7,0.6,1.2,1.2,1.6,2c0.4,0.8,0.6,1.7,0.8,2.7c0.1,1,0.2,2.1,0.2,3.4
			c0,1.5-0.1,2.8-0.4,4.1c-0.3,1.3-0.8,2.3-1.5,3.2c-0.7,0.9-1.6,1.6-2.7,2.1c-1.1,0.5-2.5,0.8-4.1,0.8c-1.2,0-2.3-0.2-3.4-0.6
			c-1-0.4-2-1-2.7-1.7c-0.8-0.7-1.4-1.6-1.8-2.6c-0.4-1-0.7-2.1-0.7-3.3V166h5v1.6c0,0.9,0.3,1.7,0.8,2.5c0.5,0.7,1.5,1.1,2.7,1.1
			c0.9,0,1.5-0.1,2-0.4c0.5-0.2,0.8-0.6,1.1-1c0.2-0.4,0.4-1,0.5-1.6c0.1-0.7,0.1-1.4,0.1-2.2c0-0.9,0-1.7-0.1-2.3
			c-0.1-0.6-0.2-1.1-0.4-1.4c-0.2-0.4-0.5-0.7-0.9-0.9c-0.4-0.2-0.9-0.5-1.5-0.7l-3.6-1.5c-2.2-0.9-3.6-2.1-4.4-3.5
			s-1.1-3.3-1.1-5.5c0-1.3,0.2-2.6,0.5-3.7c0.4-1.2,0.9-2.2,1.6-3c0.7-0.9,1.6-1.5,2.7-2c1.1-0.5,2.3-0.8,3.8-0.8
			c1.2,0,2.4,0.2,3.4,0.7c1,0.5,1.9,1.1,2.7,1.8c0.7,0.8,1.3,1.6,1.7,2.5c0.4,0.9,0.6,1.9,0.6,2.9V150.9z"/>
		<path d="M26.4,145.6h-5.8v-4.7h16.6v4.7h-5.8v30.3h-5V145.6z"/>
		<path d="M45.1,161.1l-6.9-20.2h5.3l4,13.9h0.1l4-13.9H57l-6.9,20.2v14.8h-5V161.1z"/>
		<path d="M58.5,140.9h5v30h9.9v5h-15V140.9z"/>
		<path d="M75.7,140.9h15v4.7h-9.9v10.3h8.7v4.7h-8.7v10.3h9.9v5h-15V140.9z"/>
		<path d="M103.7,149.1c0-1.4,0.2-2.7,0.7-3.7c0.5-1.1,1.1-2,1.9-2.7c0.8-0.7,1.7-1.2,2.7-1.6c1-0.4,2-0.5,3-0.5c1,0,2,0.2,3,0.5
			c1,0.4,1.9,0.9,2.7,1.6c0.8,0.7,1.5,1.6,1.9,2.7c0.5,1.1,0.7,2.3,0.7,3.7v1.8h-5v-1.8c0-1.2-0.3-2.1-1-2.7
			c-0.7-0.6-1.5-0.9-2.4-0.9c-0.9,0-1.7,0.3-2.4,0.9c-0.7,0.6-1,1.5-1,2.7v18.5c0,1.2,0.3,2.1,1,2.7c0.7,0.6,1.5,0.9,2.4,0.9
			c0.9,0,1.7-0.3,2.4-0.9c0.7-0.6,1-1.5,1-2.7V161h-4v-4.4h9v11c0,1.4-0.2,2.7-0.7,3.8c-0.5,1.1-1.1,2-1.9,2.7
			c-0.8,0.7-1.7,1.2-2.7,1.6c-1,0.4-2,0.5-3,0.5c-1,0-2-0.2-3-0.5c-1-0.4-1.9-0.9-2.7-1.6c-0.8-0.7-1.5-1.6-1.9-2.7
			c-0.5-1.1-0.7-2.3-0.7-3.8V149.1z"/>
		<path d="M139.2,168c0,1.1-0.2,2.2-0.6,3.2c-0.4,1-1,1.8-1.7,2.6c-0.7,0.7-1.6,1.3-2.6,1.7c-1,0.4-2,0.6-3.1,0.6
			c-1.1,0-2.2-0.2-3.1-0.6c-1-0.4-1.8-1-2.6-1.7c-0.7-0.7-1.3-1.6-1.7-2.6c-0.4-1-0.6-2-0.6-3.2v-27.1h5v26.7c0,1.2,0.3,2.2,0.9,2.8
			s1.3,0.9,2.2,0.9s1.6-0.3,2.2-0.9c0.6-0.6,0.9-1.5,0.9-2.8v-26.7h5V168z"/>
		<path d="M142.1,140.9h5v35h-5V140.9z"/>
		<path d="M150,140.9h7.4c2.9,0,5,0.8,6.5,2.4c1.5,1.6,2.3,3.8,2.3,6.7v16.4c0,3.3-0.8,5.7-2.4,7.3c-1.6,1.6-3.9,2.3-6.9,2.3h-7
			V140.9z M155,171.2h2.3c1.4,0,2.4-0.4,3-1.1c0.6-0.7,0.9-1.8,0.9-3.3v-16.9c0-1.4-0.3-2.4-0.8-3.2c-0.6-0.8-1.6-1.1-3-1.1H155
			V171.2z"/>
		<path d="M168.9,140.9h15v4.7h-9.9v10.3h8.7v4.7h-8.7v10.3h9.9v5h-15V140.9z"/>
	</g>
	<g>
		<path d="M67.2,131.6h-5.8l-1.2,3.5h-2.5l5.6-15.8h1.9l5.6,15.8h-2.4L67.2,131.6z M66.5,129.5l-2.2-6.9h0l-2.2,6.9H66.5z"/>
		<path d="M73.8,121.5h-4.2v-2.1h10.7v2.1h-4.2v13.7h-2.3V121.5z"/>
		<path d="M81.4,127.3c0-1.8,0.1-3.1,0.2-3.7c0.1-0.6,0.3-1.1,0.5-1.5c0.4-0.7,1-1.4,1.8-1.9c0.8-0.6,1.8-0.9,3-0.9
			c1.2,0,2.2,0.3,3,0.9c0.8,0.6,1.4,1.2,1.7,1.9c0.3,0.4,0.4,0.9,0.5,1.5c0.1,0.6,0.1,1.8,0.1,3.7c0,1.8,0,3-0.1,3.7
			c-0.1,0.6-0.3,1.1-0.5,1.5c-0.4,0.7-0.9,1.4-1.7,1.9c-0.8,0.6-1.8,0.9-3,0.9c-1.2,0-2.2-0.3-3-0.9c-0.8-0.6-1.4-1.2-1.8-1.9
			c-0.1-0.2-0.2-0.5-0.3-0.7c-0.1-0.2-0.2-0.5-0.2-0.8C81.4,130.3,81.4,129.1,81.4,127.3z M83.7,127.3c0,1.6,0.1,2.6,0.2,3.2
			c0.1,0.5,0.3,1,0.6,1.3c0.2,0.3,0.6,0.6,1,0.8c0.4,0.2,0.9,0.4,1.4,0.4c0.6,0,1-0.1,1.4-0.4c0.4-0.2,0.7-0.5,0.9-0.8
			c0.3-0.3,0.5-0.8,0.6-1.3c0.1-0.5,0.2-1.6,0.2-3.2c0-1.6-0.1-2.6-0.2-3.2c-0.1-0.5-0.3-1-0.6-1.3c-0.2-0.3-0.5-0.6-0.9-0.8
			c-0.4-0.2-0.9-0.3-1.4-0.3c-0.5,0-1,0.1-1.4,0.3c-0.4,0.2-0.7,0.5-1,0.8c-0.3,0.3-0.5,0.8-0.6,1.3
			C83.8,124.7,83.7,125.7,83.7,127.3z"/>
		<path d="M95.4,119.4h2.2l4.4,10.3l4.3-10.3h2.2v15.8h-2.3v-9.8h-0.1l-3.2,7.6H101l-3.2-7.6h0v9.8h-2.3V119.4z"/>
		<path d="M112.2,119.4h2.3v15.8h-2.3V119.4z"/>
		<path d="M128.2,130.8c-0.3,1.5-1,2.6-1.9,3.4c-1,0.8-2.1,1.2-3.5,1.2c-1.2,0-2.2-0.3-3-0.9c-0.8-0.6-1.4-1.2-1.8-1.9
			c-0.1-0.2-0.2-0.5-0.3-0.7c-0.1-0.2-0.2-0.5-0.2-0.8c-0.1-0.6-0.2-1.9-0.2-3.7c0-1.8,0.1-3.1,0.2-3.7c0.1-0.6,0.3-1.1,0.5-1.5
			c0.4-0.7,1-1.4,1.8-1.9c0.8-0.6,1.8-0.9,3-0.9c1.5,0,2.7,0.5,3.6,1.4c0.9,0.9,1.5,2,1.8,3.3h-2.5c-0.2-0.6-0.5-1.2-1-1.6
			c-0.5-0.4-1.1-0.6-1.9-0.7c-0.5,0-1,0.1-1.4,0.3c-0.4,0.2-0.7,0.5-1,0.8c-0.3,0.3-0.5,0.8-0.6,1.3c-0.1,0.6-0.2,1.6-0.2,3.2
			c0,1.6,0.1,2.6,0.2,3.2c0.1,0.5,0.3,1,0.6,1.3c0.2,0.3,0.6,0.6,1,0.8c0.4,0.2,0.9,0.4,1.4,0.4c1.3,0,2.3-0.7,2.9-2.2H128.2z"/>
	</g>
	<g>
		<g>
			<circle class="st0" cx="93.3" cy="30.5" r="15.4"/>
			<circle class="st0" cx="113.2" cy="15" r="5.2"/>
		</g>
		<circle class="st0" cx="69.8" cy="93.2" r="5.2"/>
		<g>
			<circle class="st0" cx="93.3" cy="79.6" r="15.4"/>
		</g>
		<path class="st0" d="M121.2,76c-0.8-7-4.3-13.6-9.7-18.2c-3.1-2.6-6.9-4.5-11.2-5.2c-0.9-0.2-1.7-0.3-2.6-0.5
			c-2.2-0.4-4.4-0.8-6.5-1.3c-2.8-0.7-5.9-1.5-8.5-3.1c-2.4-1.4-4.6-3.6-6.4-6.3c-3.3-5-4.2-10.8-2.8-16.2c1.5-5.4,5.1-10,10.1-12.7
			c6.3-3.4,14.3-3.2,20.4,0.6l0,0c1,0.6,2.4,0.2,2.8-1v0c0.3-0.9,0.9-1.6,1.6-2.1l0,0c1.1-0.8,1.1-2.4-0.1-3.2l0,0
			c-11.6-7.4-27.2-5.2-36.3,5.3c-4,4.7-6.5,10.6-6.8,16.7c-0.4,7,2.1,14.3,6.8,19.9c3.8,4.6,9.1,7.4,16.7,9.1
			c1.1,0.2,2.2,0.4,3.3,0.7c4.4,0.8,8.5,1.6,12.1,3.8c4.7,2.8,8,7.2,9.1,12.2c1.1,4.8,0.4,9.9-1.9,14.2c-2.6,4.9-7.2,8.5-12.6,10
			c-5.5,1.5-11.1,0.8-15.9-2c-1.3-0.8-2.6-1.7-3.7-2.8h0c-1.1-1-2.8-0.5-3.2,0.9l0,0c-0.1,0.5-0.3,1-0.6,1.5
			c-0.1,0.3-0.3,0.6-0.5,0.9c-1.2,1.6-0.4,2.7,0.4,3.4l0.1,0.1c1.2,1,2.6,1.9,3.9,2.7c2.8,1.6,5.9,2.7,9.1,3.3
			c1.6,0.3,3.2,0.4,4.7,0.4c4.4,0,8.8-1,12.7-3C116.4,98.9,122.5,87.6,121.2,76z"/>
	</g>
</g>
</svg>
