<?xml version="1.0" encoding="utf-8"?>
<!-- Generator: Adobe Illustrator 21.0.2, SVG Export Plug-In . SVG Version: 6.00 Build 0)  -->
<svg version="1.1" id="Camada_1" xmlns="http://www.w3.org/2000/svg" xmlns:xlink="http://www.w3.org/1999/xlink" x="0px" y="0px"
	 viewBox="0 0 240 94.7" style="enable-background:new 0 0 240 94.7;" xml:space="preserve">
<style type="text/css">
	.st0{fill:#231F20;}
	.st1{opacity:0.5;fill:#231F20;}
</style>
<g>
	<g>
		<g>
			<path d="M71.8,49.1h-5V48c0-1.1-0.3-2.1-0.8-3c-0.5-0.8-1.5-1.3-2.7-1.3c-0.7,0-1.3,0.1-1.7,0.4c-0.4,0.3-0.8,0.6-1,1
				s-0.4,0.9-0.5,1.4S60,47.6,60,48.2c0,0.7,0,1.3,0.1,1.7c0,0.5,0.2,0.9,0.4,1.2s0.5,0.6,0.9,0.9c0.4,0.3,0.9,0.5,1.5,0.8l3.8,1.5
				c1.1,0.4,2,0.9,2.7,1.5s1.2,1.2,1.6,2s0.6,1.7,0.8,2.7c0.1,1,0.2,2.1,0.2,3.4c0,1.5-0.1,2.8-0.4,4.1c-0.3,1.3-0.8,2.3-1.5,3.2
				c-0.7,0.9-1.6,1.6-2.7,2.1s-2.5,0.8-4.1,0.8c-1.2,0-2.3-0.2-3.4-0.6c-1-0.4-2-1-2.7-1.7c-0.8-0.7-1.4-1.6-1.8-2.6
				c-0.4-1-0.7-2.1-0.7-3.3V64h5v1.6c0,0.9,0.3,1.7,0.8,2.5c0.5,0.7,1.5,1.1,2.7,1.1c0.9,0,1.5-0.1,2-0.4c0.5-0.2,0.8-0.6,1.1-1
				c0.2-0.4,0.4-1,0.5-1.6c0.1-0.7,0.1-1.4,0.1-2.2c0-0.9,0-1.7-0.1-2.3s-0.2-1.1-0.4-1.4c-0.2-0.4-0.5-0.7-0.9-0.9
				s-0.9-0.5-1.5-0.7l-3.6-1.5c-2.2-0.9-3.6-2.1-4.4-3.5c-0.7-1.5-1.1-3.3-1.1-5.5c0-1.3,0.2-2.6,0.5-3.7c0.4-1.2,0.9-2.2,1.6-3
				c0.7-0.9,1.6-1.5,2.7-2c1.1-0.5,2.3-0.8,3.8-0.8c1.2,0,2.4,0.2,3.4,0.7s1.9,1.1,2.7,1.8c0.7,0.8,1.3,1.6,1.7,2.5
				c0.4,0.9,0.6,1.9,0.6,2.9L71.8,49.1L71.8,49.1z"/>
			<path d="M78.9,43.7h-5.8V39h16.6v4.7h-5.8V74h-5C78.9,74,78.9,43.7,78.9,43.7z"/>
			<path d="M97.6,59.2L90.7,39H96l4,13.9h0.1l4-13.9h5.3l-6.9,20.2V74h-5L97.6,59.2L97.6,59.2z"/>
			<path d="M111,39h5v30h9.9v5h-15L111,39L111,39z"/>
			<path d="M128.2,39h15v4.7h-9.9V54h8.7v4.7h-8.7V69h9.9v5h-15V39z"/>
			<path d="M156.2,47.2c0-1.4,0.2-2.7,0.7-3.7c0.5-1.1,1.1-2,1.9-2.7c0.8-0.7,1.7-1.2,2.7-1.6c1-0.4,2-0.5,3-0.5s2,0.2,3,0.5
				c1,0.4,1.9,0.9,2.7,1.6c0.8,0.7,1.5,1.6,1.9,2.7c0.5,1.1,0.7,2.3,0.7,3.7V49h-5v-1.8c0-1.2-0.3-2.1-1-2.7
				c-0.7-0.6-1.5-0.9-2.4-0.9s-1.7,0.3-2.4,0.9c-0.7,0.6-1,1.5-1,2.7v18.5c0,1.2,0.3,2.1,1,2.7s1.5,0.9,2.4,0.9s1.7-0.3,2.4-0.9
				s1-1.5,1-2.7v-6.6h-4v-4.4h9v11c0,1.4-0.2,2.7-0.7,3.8c-0.5,1.1-1.1,2-1.9,2.7c-0.8,0.7-1.7,1.2-2.7,1.6s-2,0.5-3,0.5
				s-2-0.2-3-0.5c-1-0.4-1.9-0.9-2.7-1.6s-1.5-1.6-1.9-2.7c-0.5-1.1-0.7-2.3-0.7-3.8V47.2z"/>
			<path d="M191.7,66.1c0,1.1-0.2,2.2-0.6,3.2c-0.4,1-1,1.8-1.7,2.6c-0.7,0.7-1.6,1.3-2.6,1.7c-1,0.4-2,0.6-3.1,0.6
				s-2.2-0.2-3.1-0.6c-1-0.4-1.8-1-2.6-1.7c-0.7-0.7-1.3-1.6-1.7-2.6s-0.6-2-0.6-3.2V39h5v26.7c0,1.2,0.3,2.2,0.9,2.8
				c0.6,0.6,1.3,0.9,2.2,0.9s1.6-0.3,2.2-0.9c0.6-0.6,0.9-1.5,0.9-2.8V39h5v27.1H191.7z"/>
			<path d="M194.6,39h5v35h-5V39z"/>
			<path d="M202.5,39h7.4c2.9,0,5,0.8,6.5,2.4c1.5,1.6,2.3,3.8,2.3,6.7v16.4c0,3.3-0.8,5.7-2.4,7.3c-1.6,1.6-3.9,2.3-6.9,2.3h-7
				L202.5,39L202.5,39z M207.5,69.3h2.3c1.4,0,2.4-0.4,3-1.1s0.9-1.8,0.9-3.3V48c0-1.4-0.3-2.4-0.8-3.2c-0.6-0.8-1.6-1.1-3-1.1h-2.3
				L207.5,69.3L207.5,69.3z"/>
			<path d="M221.4,39h15v4.7h-9.9V54h8.7v4.7h-8.7V69h9.9v5h-15V39z"/>
		</g>
		<g>
			<path d="M64.1,32.8h-5.8l-1.2,3.5h-2.5l5.6-15.8h1.9l5.6,15.8h-2.4L64.1,32.8z M63.4,30.6l-2.2-6.9l0,0L59,30.6H63.4z"/>
			<path d="M70.7,22.6h-4.2v-2.1h10.7v2.1H73v13.7h-2.3V22.6z"/>
			<path d="M78.3,28.4c0-1.8,0.1-3.1,0.2-3.7c0.1-0.6,0.3-1.1,0.5-1.5c0.4-0.7,1-1.4,1.8-1.9c0.8-0.6,1.8-0.9,3-0.9s2.2,0.3,3,0.9
				c0.8,0.6,1.4,1.2,1.7,1.9c0.3,0.4,0.4,0.9,0.5,1.5c0.1,0.6,0.1,1.8,0.1,3.7c0,1.8,0,3-0.1,3.7c-0.1,0.6-0.3,1.1-0.5,1.5
				c-0.4,0.7-0.9,1.4-1.7,1.9c-0.8,0.6-1.8,0.9-3,0.9s-2.2-0.3-3-0.9c-0.8-0.6-1.4-1.2-1.8-1.9c-0.1-0.2-0.2-0.5-0.3-0.7
				c-0.1-0.2-0.2-0.5-0.2-0.8C78.3,31.4,78.3,30.2,78.3,28.4z M80.6,28.4c0,1.6,0.1,2.6,0.2,3.2c0.1,0.5,0.3,1,0.6,1.3
				c0.2,0.3,0.6,0.6,1,0.8s0.9,0.4,1.4,0.4c0.6,0,1-0.1,1.4-0.4c0.4-0.2,0.7-0.5,0.9-0.8c0.3-0.3,0.5-0.8,0.6-1.3s0.2-1.6,0.2-3.2
				c0-1.6-0.1-2.6-0.2-3.2c-0.1-0.5-0.3-1-0.6-1.3c-0.2-0.3-0.5-0.6-0.9-0.8s-0.9-0.3-1.4-0.3s-1,0.1-1.4,0.3
				c-0.4,0.2-0.7,0.5-1,0.8s-0.5,0.8-0.6,1.3C80.6,25.8,80.6,26.8,80.6,28.4z"/>
			<path d="M92.3,20.5h2.2l4.4,10.3l4.3-10.3h2.2v15.8H103v-9.8l0,0L99.8,34h-1.9l-3.2-7.6l0,0v9.8h-2.3L92.3,20.5L92.3,20.5z"/>
			<path d="M109.1,20.5h2.3v15.8h-2.3V20.5z"/>
			<path d="M125.1,31.9c-0.3,1.5-1,2.6-1.9,3.4c-1,0.8-2.1,1.2-3.5,1.2c-1.2,0-2.2-0.3-3-0.9c-0.8-0.6-1.4-1.2-1.8-1.9
				c-0.1-0.2-0.2-0.5-0.3-0.7c-0.1-0.2-0.2-0.5-0.2-0.8c-0.1-0.6-0.2-1.9-0.2-3.7c0-1.8,0.1-3.1,0.2-3.7c0.1-0.6,0.3-1.1,0.5-1.5
				c0.4-0.7,1-1.4,1.8-1.9c0.8-0.6,1.8-0.9,3-0.9c1.5,0,2.7,0.5,3.6,1.4c0.9,0.9,1.5,2,1.8,3.3h-2.5c-0.2-0.6-0.5-1.2-1-1.6
				c-0.5-0.4-1.1-0.6-1.9-0.7c-0.5,0-1,0.1-1.4,0.3c-0.4,0.2-0.7,0.5-1,0.8s-0.5,0.8-0.6,1.3c-0.1,0.6-0.2,1.6-0.2,3.2
				c0,1.6,0.1,2.6,0.2,3.2c0.1,0.5,0.3,1,0.6,1.3c0.2,0.3,0.6,0.6,1,0.8s0.9,0.4,1.4,0.4c1.3,0,2.3-0.7,2.9-2.2L125.1,31.9
				L125.1,31.9z"/>
		</g>
	</g>
</g>
<g>
	<g>
		<circle class="st0" cx="25.3" cy="25.5" r="12.4"/>
		<circle class="st0" cx="41.2" cy="10.4" r="4.6"/>
		<path class="st0" d="M48.8,69.2c0,13-10.5,23.5-23.5,23.5S1.8,82.1,1.8,69.2c0-4.3,1.1-8.3,3.1-11.7c0.7,0.9,1.7,1.6,2.8,2
			c-1.6,2.9-2.5,6.2-2.5,9.7c0,11.1,9,20.1,20.1,20.1c11.1,0,20.1-9,20.1-20.1c0-11.1-9-20.1-20.1-20.1c0,0-0.1,0-0.1,0v0
			c-3,0-6-0.6-8.6-1.7C7.9,43.9,1.8,35.4,1.8,25.5C1.8,12.6,12.4,2,25.3,2c4.6,0,9,1.4,12.6,3.7c-0.9,0.7-1.7,1.6-2.1,2.7
			c-3.1-1.9-6.7-3-10.5-3c-11.1,0-20.1,9-20.1,20.1c0,11,9,20,20,20.1v0c0,0,0.1,0,0.1,0c3.1,0,6.1,0.6,8.8,1.7
			C42.7,50.8,48.8,59.3,48.8,69.2z"/>
		<path class="st1" d="M48.8,25.5c0,9.9-6.1,18.3-14.7,21.8c-2.7-1.1-5.7-1.7-8.8-1.7c0,0-0.1,0-0.1,0v0c0,0,0.1,0,0.1,0
			c11.1,0,20.1-9,20.1-20.1c0-3.5-0.9-6.9-2.5-9.7c1.1-0.4,2.1-1.1,2.8-2C47.7,17.3,48.8,21.3,48.8,25.5z"/>
	</g>
	<g>
		<circle class="st0" cx="25.3" cy="69.2" r="12.4"/>
		<circle class="st0" cx="9.5" cy="54" r="4.6"/>
		<path class="st1" d="M25.2,49L25.2,49c-3.8,0-7.4,1.1-10.4,3c-0.4-1.1-1.1-2-2.1-2.7c1.2-0.8,2.5-1.5,3.9-2
			C19.2,48.4,22.2,49,25.2,49z"/>
	</g>
</g>
</svg>
